<?xml version="1.0" standalone="no"?>
<!DOCTYPE svg PUBLIC "-//W3C//DTD SVG 20010904//EN"
 "http://www.w3.org/TR/2001/REC-SVG-20010904/DTD/svg10.dtd">
<svg version="1.0" xmlns="http://www.w3.org/2000/svg"
 width="329.000000pt" height="317.000000pt" viewBox="0 0 329.000000 317.000000"
 preserveAspectRatio="xMidYMid meet">

<g transform="translate(0.000000,317.000000) scale(0.100000,-0.100000)"
fill="#000000" stroke="none">
<path d="M0 1585 l0 -1585 1645 0 1645 0 0 1585 0 1585 -1645 0 -1645 0 0
-1585z m1685 566 c150 -36 279 -107 392 -214 88 -84 120 -138 104 -173 -8 -18
-19 -24 -41 -24 -25 0 -47 16 -123 93 -100 100 -166 144 -279 185 -67 25 -85
27 -228 27 -143 0 -161 -2 -228 -27 -111 -40 -178 -84 -272 -178 -140 -139
-202 -292 -202 -495 -1 -121 18 -202 72 -312 113 -229 330 -373 590 -390 222
-14 458 91 589 260 47 61 69 74 101 57 36 -19 36 -55 -3 -107 -93 -127 -238
-231 -393 -285 -71 -24 -107 -31 -213 -35 -196 -9 -330 25 -481 122 -170 109
-276 248 -346 455 -27 80 -29 94 -28 240 1 145 3 161 31 248 41 122 99 217
192 315 102 107 180 159 309 207 146 53 315 65 457 31z m-274 -425 c52 -14
156 -50 232 -81 273 -110 318 -108 489 22 58 44 97 54 117 29 24 -28 62 -165
73 -257 23 -210 -47 -479 -119 -452 -10 4 -52 31 -94 60 -140 97 -186 104
-344 47 -373 -135 -407 -145 -480 -142 -92 4 -155 35 -201 97 -56 77 -69 135
-68 306 0 130 3 157 22 206 39 97 109 163 192 180 60 12 85 10 181 -15z"/>
<path d="M1230 1613 c-70 -36 -100 -117 -100 -272 0 -89 18 -174 47 -218 51
-78 154 -69 421 38 275 110 367 114 517 24 31 -19 61 -35 65 -35 15 0 33 106
33 195 0 82 -18 205 -29 205 -3 0 -34 -18 -70 -39 -132 -80 -245 -81 -439 -6
-300 117 -386 138 -445 108z"/>
</g>
</svg>
